<?xml version="1.0" encoding="utf-8"?>
<!-- Generator: Adobe Illustrator 24.1.2, SVG Export Plug-In . SVG Version: 6.00 Build 0)  -->
<svg version="1.1" id="Слой_1" xmlns:serif="http://www.serif.com/"
	 xmlns="http://www.w3.org/2000/svg" xmlns:xlink="http://www.w3.org/1999/xlink" x="0px" y="0px" viewBox="0 0 612 792"
	 style="enable-background:new 0 0 612 792;" xml:space="preserve">
<style type="text/css">
	.st0{fill-rule:evenodd;clip-rule:evenodd;}
	.st1{fill:#FFFFFF;}
</style>
<path class="st0" d="M537.2,90c41.3,0,74.8,33.5,74.8,74.8v462.5c0,41.3-33.5,74.8-74.8,74.8H74.8C33.5,702,0,668.5,0,627.2V164.8
	C0,123.5,33.5,90,74.8,90L537.2,90L537.2,90z"/>
<path class="st1" d="M482.4,268.4c-6.9-10.4-16.7-18.4-28.2-23c-25.1-10.1-46.7-16.8-66.1-20.6c-13.6-2.7-27,4-33.4,16.6l-1.6,3.1
	c-14.3-1.6-29.5-2.1-46.8-1.7c-17.8-0.4-33,0.1-47.3,1.7l-1.6-3.1c-6.5-12.6-19.9-19.2-33.4-16.6c-19.3,3.8-41,10.5-66.1,20.6
	c-11.6,4.6-21.3,12.6-28.2,23c-48.1,72.7-67,151.2-57.7,239.8c0.3,3.1,2.1,5.9,4.7,7.6c37,23.4,69.1,39.3,100.9,50.3
	c13.3,4.6,28-0.6,35.9-12.5l14-21.4c-11.1-4.2-22-9.2-32.4-15.1c-4.9-2.8-6.6-9-3.8-13.9c2.8-4.9,9-6.6,13.9-3.8
	c31,17.7,66.1,27,101.4,27s70.4-9.4,101.4-27c4.9-2.8,11.1-1.1,13.9,3.8c2.8,4.9,1.1,11.1-3.8,13.9c-10.8,6.1-22,11.3-33.6,15.5
	l14.4,21.4c5.9,8.8,15.7,13.8,25.8,13.8c3.3,0,6.6-0.5,9.8-1.6c31.9-11,64-27,101.1-50.4c2.6-1.7,4.4-4.5,4.7-7.6
	C549.4,419.5,530.6,341.1,482.4,268.4z M240.9,445.1c-19.6,0-35.8-20.7-35.8-45.8s16.2-45.8,35.8-45.8s35.8,20.7,35.8,45.8
	S260.5,445.1,240.9,445.1z M373.4,444.9c-19.5,0-35.5-20.8-35.5-46.1c0-25.3,16-46.1,35.5-46.1c19.5,0,35.5,20.8,35.5,46.1
	C408.8,424,392.8,444.9,373.4,444.9z"/>
</svg>
