<?xml version="1.0" encoding="utf-8"?>
<!-- Generator: Adobe Illustrator 24.1.2, SVG Export Plug-In . SVG Version: 6.00 Build 0)  -->
<svg version="1.1" id="Слой_1" xmlns:serif="http://www.serif.com/"
	 xmlns="http://www.w3.org/2000/svg" xmlns:xlink="http://www.w3.org/1999/xlink" x="0px" y="0px" viewBox="0 0 612 792"
	 style="enable-background:new 0 0 612 792;" xml:space="preserve">
<style type="text/css">
	.st0{fill-rule:evenodd;clip-rule:evenodd;}
	.st1{fill-rule:evenodd;clip-rule:evenodd;fill:#FFFFFF;}
</style>
<path class="st0" d="M537.2,90c41.3,0,74.8,33.5,74.8,74.8v462.5c0,41.3-33.5,74.8-74.8,74.8H74.8C33.5,702,0,668.5,0,627.2V164.8
	C0,123.5,33.5,90,74.8,90L537.2,90L537.2,90z"/>
<path class="st1" d="M306,169.7c-128.1,0-232,103.9-232,232.1c0,102.5,66.5,189.5,158.7,220.2c11.6,2.1,15.3-4.8,15.3-10.9
	c0-5.5,0.1-20.9,0-40.3c-64.5,14-77.9-30.6-77.9-30.6c-10.5-26.8-25.7-33.9-25.7-33.9c-21.1-14.4,1.6-14.1,1.6-14.1
	c23.3,1.6,35.6,23.9,35.6,23.9c20.7,35.4,54.3,25.2,67.5,19.3c2.1-15,8.1-25.2,14.8-31C212.1,498.4,158,478.5,158,389.6
	c0-25.3,9-46,23.9-62.3c-2.4-5.9-10.4-29.5,2.3-61.4c0,0,19.5-6.2,63.8,23.8c18.5-5.1,38.4-7.7,58.1-7.8c19.7,0.1,39.6,2.7,58.1,7.8
	c44.3-30,63.8-23.8,63.8-23.8c12.6,32,4.7,55.6,2.3,61.4c14.8,16.2,23.8,36.9,23.8,62.3c0,89.2-54.3,108.8-106,114.5
	c8.3,7.2,15.9,21.1,15.9,42.8c0,29,0,56.6,0,64.2c0,6.2,3.7,13.1,15.5,10.8C471.6,591.2,538,504.2,538,401.7
	C538,273.6,434.2,169.7,306,169.7z"/>
</svg>
