<?xml version="1.0" encoding="utf-8"?>
<!-- Generator: Adobe Illustrator 24.1.2, SVG Export Plug-In . SVG Version: 6.00 Build 0)  -->
<svg version="1.1" id="Слой_1" xmlns="http://www.w3.org/2000/svg" xmlns:xlink="http://www.w3.org/1999/xlink" x="0px" y="0px"
	 viewBox="0 0 82 82" style="enable-background:new 0 0 82 82;" xml:space="preserve">
<style type="text/css">
	.st0{fill:#FFFFFF;}
	.st1{fill:#FFFFFF;stroke:#000000;stroke-miterlimit:10;}
</style>
<g id="Layer_2">
	<g id="Icons">
		<path class="st0" d="M41,82C18.4,82,0,63.6,0,41S18.4,0,41,0s41,18.4,41,41S63.6,82,41,82z M41,2C19.5,2,2,19.5,2,41
			s17.5,39,39,39s39-17.5,39-39S62.5,2,41,2z"/>
	</g>
</g>
<path class="st1" d="M-69,48"/>
<path class="st0" d="M56.6,29.7c-0.6-0.9-1.5-1.6-2.5-2c-2.2-0.9-4.1-1.5-5.8-1.8c-1.2-0.2-2.4,0.4-2.9,1.5l-0.1,0.3
	c-1.3-0.1-2.6-0.2-4.1-0.2c-1.6,0-2.9,0-4.2,0.2l-0.1-0.3c-0.6-1.1-1.8-1.7-2.9-1.5c-1.7,0.3-3.6,0.9-5.8,1.8c-1,0.4-1.9,1.1-2.5,2
	c-4.2,6.4-5.9,13.3-5.1,21.2c0,0.3,0.2,0.5,0.4,0.7c3.3,2.1,6.1,3.5,8.9,4.4c1.2,0.4,2.5-0.1,3.2-1.1l1.2-1.9
	c-1-0.4-1.9-0.8-2.9-1.3c-0.4-0.2-0.6-0.8-0.3-1.2c0.2-0.4,0.8-0.6,1.2-0.3c2.7,1.6,5.8,2.4,8.9,2.4c3.1,0,6.2-0.8,8.9-2.4
	c0.4-0.2,1-0.1,1.2,0.3s0.1,1-0.3,1.2c-1,0.5-1.9,1-3,1.4l1.3,1.9c0.5,0.8,1.4,1.2,2.3,1.2c0.3,0,0.6,0,0.9-0.1
	c2.8-1,5.6-2.4,8.9-4.4c0.2-0.2,0.4-0.4,0.4-0.7C62.5,43.1,60.8,36.2,56.6,29.7z M35.2,45.3c-1.7,0-3.2-1.8-3.2-4c0-2.2,1.4-4,3.2-4
	s3.2,1.8,3.2,4C38.4,43.5,37,45.3,35.2,45.3z M46.9,45.3c-1.7,0-3.1-1.8-3.1-4.1c0-2.2,1.4-4.1,3.1-4.1s3.1,1.8,3.1,4.1
	C50.1,43.5,48.6,45.3,46.9,45.3z"/>
</svg>
