<?xml version="1.0" encoding="utf-8"?>
<!-- Generator: Adobe Illustrator 24.1.2, SVG Export Plug-In . SVG Version: 6.00 Build 0)  -->
<svg version="1.1" id="Слой_1" xmlns="http://www.w3.org/2000/svg" xmlns:xlink="http://www.w3.org/1999/xlink" x="0px" y="0px"
	 viewBox="0 0 82 82" style="enable-background:new 0 0 82 82;" xml:space="preserve">
<style type="text/css">
	.st0{fill-rule:evenodd;clip-rule:evenodd;fill:#FFFFFF;}
	.st1{fill:#FFFFFF;}
	.st2{fill:#FFFFFF;stroke:#000000;stroke-miterlimit:10;}
</style>
<path class="st0" d="M41,20.5c-11.6,0-21,9.4-21,21c0,9.3,6,17.2,14.4,20c1.1,0.2,1.4-0.4,1.4-1c0-0.5,0-1.9,0-3.7
	c-5.9,1.3-7.1-2.8-7.1-2.8c-1-2.4-2.3-3.1-2.3-3.1c-1.9-1.3,0.1-1.3,0.1-1.3c2.1,0.1,3.2,2.2,3.2,2.2c1.9,3.2,4.9,2.3,6.1,1.7
	c0.2-1.4,0.7-2.3,1.3-2.8c-4.7-0.5-9.6-2.3-9.6-10.4c0-2.3,0.8-4.2,2.2-5.6c-0.2-0.5-0.9-2.7,0.2-5.6c0,0,1.8-0.6,5.8,2.2
	c1.7-0.5,3.5-0.7,5.3-0.7c1.8,0,3.6,0.2,5.3,0.7c4-2.7,5.8-2.2,5.8-2.2c1.1,2.9,0.4,5,0.2,5.6c1.3,1.5,2.2,3.3,2.2,5.6
	c0,8.1-4.9,9.9-9.6,10.4c0.8,0.7,1.4,1.9,1.4,3.9c0,2.6,0,5.1,0,5.8c0,0.6,0.3,1.2,1.4,1C56,58.7,62,50.8,62,41.5
	C62,29.9,52.6,20.5,41,20.5z"/>
<g id="Layer_2">
	<g id="Icons">
		<path class="st1" d="M41,82C18.4,82,0,63.6,0,41S18.4,0,41,0s41,18.4,41,41S63.6,82,41,82z M41,2C19.5,2,2,19.5,2,41
			s17.5,39,39,39s39-17.5,39-39S62.5,2,41,2z"/>
	</g>
</g>
<path class="st2" d="M-69,48"/>
</svg>
